<svg width="18" height="19" viewBox="0 0 18 19" fill="none" xmlns="http://www.w3.org/2000/svg">
<path fill-rule="evenodd" clip-rule="evenodd" d="M3.65104 2.18779C3.49177 2.18744 3.33823 2.20553 3.19234 2.23993C2.99234 1.79754 2.72816 1.40065 2.42769 1.0991C1.91772 0.587297 1.11341 0.385498 0 0.385498V2.1855C0.680165 2.1855 1.07157 2.2837 1.15945 2.37189C1.49841 2.71207 1.79357 3.40325 1.79357 3.9855L1.80258 4.11278L2.68132 10.286C1.21098 10.3625 0.0719201 11.5084 0.00110177 12.9409L0 13.8855C0.0868279 15.365 1.2221 16.5032 2.63945 16.584L2.84304 16.5844C3.21205 17.6336 4.20889 18.3855 5.38071 18.3855C6.55211 18.3855 7.54865 17.6342 7.91798 16.5855H10.0177C10.3871 17.6342 11.3836 18.3855 12.555 18.3855C14.0408 18.3855 15.2454 17.1767 15.2454 15.6855C15.2454 14.1943 14.0408 12.9855 12.555 12.9855C11.3836 12.9855 10.3871 13.7368 10.0177 14.7855H7.91798C7.54865 13.7368 6.55211 12.9855 5.38071 12.9855C4.20932 12.9855 3.21277 13.7368 2.84344 14.7855H2.69036C2.233 14.7579 1.82275 14.3467 1.79196 13.8316L1.79357 12.9855C1.81775 12.5187 2.2252 12.1098 2.7348 12.0844L4.50517 12.0848L4.51801 12.0855H13.5566L13.6889 12.0433C14.3689 11.8268 14.9132 11.313 15.1709 10.6478L15.2654 10.4601L15.5724 9.84978C15.8899 9.21802 16.2075 8.58518 16.517 7.96692C17.275 6.45246 17.7517 5.48999 17.8573 5.25365C18.3994 4.0399 17.3012 3.10571 16.1786 3.08582L3.65104 2.18779ZM13.245 10.2855H4.58515C4.52757 10.2694 4.48369 10.2205 4.4751 10.1595L3.59634 3.98616L16.0465 4.88093C15.8287 5.32679 15.4327 6.12314 14.9142 7.15898L14.9012 7.18493C14.6053 7.77617 14.2882 8.40814 13.971 9.03906L13.6645 9.64861L13.5482 9.87945L13.5045 9.9815C13.4577 10.1125 13.3646 10.2201 13.245 10.2855ZM12.555 16.5855C13.0503 16.5855 13.4518 16.1826 13.4518 15.6855C13.4518 15.1884 13.0503 14.7855 12.555 14.7855C12.0597 14.7855 11.6582 15.1884 11.6582 15.6855C11.6582 16.1826 12.0597 16.5855 12.555 16.5855ZM6.2775 15.6855C6.2775 16.1826 5.876 16.5855 5.38072 16.5855C4.88544 16.5855 4.48393 16.1826 4.48393 15.6855C4.48393 15.1884 4.88544 14.7855 5.38072 14.7855C5.876 14.7855 6.2775 15.1884 6.2775 15.6855Z" fill="white"/>
</svg>
