<svg width="16" height="16" viewBox="0 0 16 16" fill="none" xmlns="http://www.w3.org/2000/svg">
<path fill-rule="evenodd" clip-rule="evenodd" d="M8 16C3.58172 16 0 12.4183 0 8C0 3.58172 3.58172 0 8 0C12.4183 0 16 3.58172 16 8C16 12.4183 12.4183 16 8 16ZM13.3815 11.727C14.1154 10.6693 14.5455 9.3849 14.5455 8.00001C14.5455 4.38506 11.615 1.45456 8 1.45456C4.38504 1.45456 1.45454 4.38506 1.45454 8.00001C1.45454 9.3849 1.88464 10.6693 2.61854 11.727C3.43609 10.6471 5.35592 10.1829 7.99072 10.1818C6.36668 10.1775 5.09091 9.03336 5.09091 6.54546C5.09091 4.91329 6.23935 3.63637 8 3.63637C9.75578 3.63637 10.9091 5.03388 10.9091 6.69092C10.9091 9.07149 9.61816 10.1776 8.00934 10.1818C10.6441 10.1829 12.5639 10.6471 13.3815 11.727ZM12.338 12.9017C12.1251 12.1363 10.5959 11.6364 8 11.6364C5.40407 11.6364 3.87489 12.1363 3.66205 12.9017C4.81694 13.9245 6.33595 14.5455 8 14.5455C9.66405 14.5455 11.1831 13.9245 12.338 12.9017ZM6.54546 6.54548C6.54546 8.19585 7.14052 8.72729 8 8.72729C8.85651 8.72729 9.45455 8.21704 9.45455 6.69093C9.45455 5.78214 8.88411 5.09093 8 5.09093C7.07908 5.09093 6.54546 5.68426 6.54546 6.54548Z" fill="white"/>
</svg>
