<svg width="20" height="21" viewBox="0 0 20 21" fill="none" xmlns="http://www.w3.org/2000/svg">
<path fill-rule="evenodd" clip-rule="evenodd" d="M8 16.3855C3.58172 16.3855 0 12.8038 0 8.3855C0 3.96722 3.58172 0.385498 8 0.385498C12.4183 0.385498 16 3.96722 16 8.3855C16 10.2342 15.3729 11.9365 14.3199 13.2911L19.7071 18.6784L18.2929 20.0926L12.9056 14.7054C11.551 15.7584 9.84871 16.3855 8 16.3855ZM14 8.3855C14 11.6992 11.3137 14.3855 8 14.3855C4.68629 14.3855 2 11.6992 2 8.3855C2 5.07179 4.68629 2.3855 8 2.3855C11.3137 2.3855 14 5.07179 14 8.3855Z" fill="#405069"/>
</svg>
